<svg xmlns="http://www.w3.org/2000/svg" xmlns:xlink="http://www.w3.org/1999/xlink" fill="none" version="1.1" width="44" height="44" viewBox="0 0 44 44"><g><g style="opacity:0;"><ellipse cx="22" cy="22" rx="22" ry="22" fill="#000000" fill-opacity="1"/></g><g transform="matrix(0.7071067690849304,0.7071067690849304,-0.7071067690849304,0.7071067690849304,10.999794109840877,-13.669132574577816)"><path d="M34,7.443849375Q34,7.345356375,33.9808,7.248757375Q33.961600000000004,7.152158375,33.9239,7.061164375Q33.8862,6.970170375,33.8315,6.888277375Q33.7767,6.806384375,33.7071,6.736740375Q33.6375,6.667097375,33.5556,6.612378375Q33.4737,6.557659375,33.3827,6.519968075Q33.2917,6.482277075,33.1951,6.463062375Q33.0985,6.443847656,33,6.443847656Q32.9015,6.443847656,32.8049,6.463062375Q32.7083,6.482277075,32.6173,6.519968075Q32.5263,6.557659375,32.4444,6.612378375Q32.3625,6.667097375,32.2929,6.736740375Q32.2232,6.806384375,32.1685,6.888277375Q32.1138,6.970170375,32.0761,7.061164375Q32.038399999999996,7.152158375,32.0192,7.248757375Q32,7.345356375,32,7.443849375L32,16.443859375000002L22.999023,16.443859375000002Q22.900532,16.443859375000002,22.803933,16.463059375Q22.707334,16.482259374999998,22.61634,16.519959375Q22.525346,16.557659375,22.443453,16.612359375Q22.361561000000002,16.667059375,22.291917,16.736759375Q22.222273,16.806359375,22.167554,16.888259375Q22.112835,16.970159375,22.0751439,17.061159375000003Q22.0374529,17.152159375,22.0182382,17.248759375Q21.999023438,17.345359375,21.999023438,17.443859375000002Q21.999023438,17.542359375,22.0182382,17.638959375Q22.0374529,17.735559375,22.0751439,17.826559375000002Q22.112835,17.917559375,22.167554,17.999459375Q22.222273,18.081259375000002,22.291917,18.150959375Q22.361561000000002,18.220559375,22.443453,18.275359375Q22.525346,18.330059374999998,22.61634,18.367759375Q22.707334,18.405459375,22.803933,18.424659374999997Q22.900532,18.443859375000002,22.999023,18.443859375000002L32,18.443859375000002L32,27.443859375Q32,27.542359375,32.0192,27.638959375Q32.038399999999996,27.735559375,32.0761,27.826559375Q32.1138,27.917559375,32.1685,27.999459375Q32.2232,28.081259375,32.2929,28.150959375Q32.3625,28.220559375,32.4444,28.275359375Q32.5263,28.330059375,32.6173,28.367759375Q32.7083,28.405459375,32.8049,28.424659375Q32.9015,28.443859375,33,28.443859375Q33.0985,28.443859375,33.1951,28.424659375Q33.2917,28.405459375,33.3827,28.367759375Q33.4737,28.330059375,33.5556,28.275359375Q33.6375,28.220559375,33.7071,28.150959375Q33.7767,28.081259375,33.8315,27.999459375Q33.8862,27.917559375,33.9239,27.826559375Q33.961600000000004,27.735559375,33.9808,27.638959375Q34,27.542359375,34,27.443859375L34,18.443859375000002L42.998999999999995,18.443859375000002Q43.0975,18.443859375000002,43.1941,18.424659374999997Q43.2907,18.405459375,43.381699999999995,18.367759375Q43.4727,18.330059374999998,43.5546,18.275359375Q43.6365,18.220559375,43.7061,18.150959375Q43.775800000000004,18.081259375000002,43.8305,17.999459375Q43.8852,17.917559375,43.9229,17.826559375000002Q43.9606,17.735559375,43.9798,17.638959375Q43.998999999999995,17.542359375,43.998999999999995,17.443859375000002Q43.998999999999995,17.345359375,43.9798,17.248759375Q43.9606,17.152159375,43.9229,17.061159375000003Q43.8852,16.970159375,43.8305,16.888259375Q43.775800000000004,16.806359375,43.7061,16.736759375Q43.6365,16.667059375,43.5546,16.612359375Q43.4727,16.557659375,43.381699999999995,16.519959375Q43.2907,16.482259374999998,43.1941,16.463059375Q43.0975,16.443859375000002,42.998999999999995,16.443859375000002L34,16.443859375000002L34,7.443849375Z" fill-rule="evenodd" fill="#333333" fill-opacity="1"/></g></g></svg>